# xmcd
#
# Track frame offsets: 
#        150
#        13555
#        26870
#        41155
#        54072
#        68627
#        83060
#        95702
#        109027
#        123847
#        137360
#        150500
#        163662
#        177690
#        191977
#        206005
#
# Disc length: 2923 seconds
#
# Revision: 1
# Processed by: cddbd v1.5.2PL0 Copyright (c) Steve Scherf et al.
# Submitted via: ExactAudioCopy v0.99pb5
#
DISCID=d50b6910
DTITLE=Beny Rehmann - Abendstimmung
DYEAR=1994
DGENRE=Instrumental
TTITLE0=Abendstimmung
TTITLE1=Caribic Party
TTITLE2=Margeriten und Arnika
TTITLE3=Schattenspiele
TTITLE4=Unterwegs zu dir
TTITLE5=Ein Herz voll Sehnsucht
TTITLE6=Glücksgefühle
TTITLE7=Kornblumen im Wind
TTITLE8=Gipsy Fire
TTITLE9=Zärtliche Blicke
TTITLE10=Sternstunden
TTITLE11=Liebe für ein Leben
TTITLE12=Mitternachtstraum
TTITLE13=Mikado
TTITLE14=Gedanken an dich
TTITLE15=Heide Melodie
EXTD=
EXTT0=
EXTT1=
EXTT2=
EXTT3=
EXTT4=
EXTT5=
EXTT6=
EXTT7=
EXTT8=
EXTT9=
EXTT10=
EXTT11=
EXTT12=
EXTT13=
EXTT14=
EXTT15=
PLAYORDER=
